<svg xmlns="http://www.w3.org/2000/svg" width="1200" height="630" viewBox="0 0 1200 630">
	<rect width="1200" height="630" fill="#f5f3ec"/>
	<defs>
		<pattern id="grid" width="54" height="54" patternUnits="userSpaceOnUse">
			<path d="M 54 0 L 0 0 0 54" fill="none" stroke="#173d2d" stroke-opacity=".07" stroke-width="1"/>
		</pattern>
		<linearGradient id="orange" x1="0" y1="0" x2="1" y2="1">
			<stop stop-color="#f29a71"/><stop offset="1" stop-color="#db6542"/>
		</linearGradient>
		<linearGradient id="blue" x1="0" y1="0" x2="1" y2="1">
			<stop stop-color="#788be8"/><stop offset="1" stop-color="#4358b7"/>
		</linearGradient>
		<linearGradient id="green" x1="0" y1="0" x2="1" y2="1">
			<stop stop-color="#91aa69"/><stop offset="1" stop-color="#637d47"/>
		</linearGradient>
	</defs>
	<rect x="590" width="610" height="630" fill="url(#grid)"/>
	<circle cx="1100" cy="45" r="220" fill="none" stroke="#173d2d" stroke-opacity=".12"/>
	<circle cx="1100" cy="45" r="150" fill="none" stroke="#173d2d" stroke-opacity=".12"/>

	<g transform="translate(76 66)">
		<rect width="52" height="52" rx="12" fill="#173d2d"/>
		<g fill="#d5ff52">
			<rect x="11" y="11" width="12" height="12" rx="2"/>
			<rect x="29" y="11" width="12" height="12" rx="2"/>
			<rect x="11" y="29" width="12" height="12" rx="2"/>
			<rect x="29" y="29" width="12" height="12" rx="2"/>
		</g>
		<text x="70" y="35" fill="#15231b" font-family="Arial, sans-serif" font-size="28" font-weight="700">Posts Grid</text>
	</g>

	<g transform="translate(76 187)">
		<rect width="206" height="34" rx="17" fill="#e5e8d9"/>
		<circle cx="20" cy="17" r="5" fill="#72a61c"/>
		<text x="35" y="22" fill="#173d2d" font-family="Arial, sans-serif" font-size="13" font-weight="700" letter-spacing="1">FREE &amp; OPEN SOURCE</text>
		<text x="0" y="103" fill="#15231b" font-family="Arial, sans-serif" font-size="72" font-weight="800" letter-spacing="-4">Your posts.</text>
		<text x="0" y="181" fill="#173d2d" font-family="Georgia, serif" font-size="78" font-style="italic">Exactly</text>
		<rect x="0" y="195" width="224" height="10" rx="5" fill="#d5ff52"/>
		<text x="0" y="266" fill="#15231b" font-family="Arial, sans-serif" font-size="72" font-weight="800" letter-spacing="-4">where they belong.</text>
		<text x="0" y="319" fill="#657169" font-family="Arial, sans-serif" font-size="20">A powerful, responsive Gutenberg block.</text>
	</g>

	<g transform="translate(718 128) rotate(2)">
		<rect width="402" height="382" rx="20" fill="#ffffff" stroke="#173d2d" stroke-opacity=".14"/>
		<rect width="402" height="48" rx="20" fill="#ffffff"/>
		<line x1="0" y1="48" x2="402" y2="48" stroke="#e4e6e1"/>
		<circle cx="22" cy="24" r="4" fill="#d8dad6"/><circle cx="35" cy="24" r="4" fill="#d8dad6"/><circle cx="48" cy="24" r="4" fill="#d8dad6"/>
		<rect x="335" y="15" width="48" height="20" rx="3" fill="#3858e9"/>
		<text x="345" y="29" fill="#fff" font-family="Arial, sans-serif" font-size="9" font-weight="700">Publish</text>
		<rect y="48" width="402" height="334" rx="0 0 20 20" fill="#f7f5ef"/>
		<text x="27" y="88" fill="#8a918c" font-family="Arial, sans-serif" font-size="8" font-weight="700" letter-spacing="2">THE JOURNAL</text>
		<text x="27" y="122" fill="#15231b" font-family="Georgia, serif" font-size="29">Latest stories</text>

		<g transform="translate(27 144)">
			<rect width="105" height="97" rx="8" fill="url(#orange)"/>
			<circle cx="88" cy="12" r="42" fill="none" stroke="#fff" stroke-opacity=".28" stroke-width="14"/>
			<text x="0" y="120" fill="#8a918c" font-family="Arial, sans-serif" font-size="7" font-weight="700">MAY 18 · 6 MIN</text>
			<text x="0" y="141" fill="#15231b" font-family="Georgia, serif" font-size="14" font-weight="700">Small details,</text>
			<text x="0" y="158" fill="#15231b" font-family="Georgia, serif" font-size="14" font-weight="700">better products</text>
		</g>
		<g transform="translate(148 144)">
			<rect width="105" height="97" rx="8" fill="url(#blue)"/>
			<rect x="12" y="-10" width="54" height="54" fill="#fff" fill-opacity=".20" transform="rotate(35 39 17)"/>
			<text x="0" y="120" fill="#8a918c" font-family="Arial, sans-serif" font-size="7" font-weight="700">MAY 14 · 4 MIN</text>
			<text x="0" y="141" fill="#15231b" font-family="Georgia, serif" font-size="13" font-weight="700">Calmer creative</text>
			<text x="0" y="158" fill="#15231b" font-family="Georgia, serif" font-size="13" font-weight="700">workflow</text>
		</g>
		<g transform="translate(269 144)">
			<rect width="105" height="97" rx="8" fill="url(#green)"/>
			<circle cx="5" cy="8" r="42" fill="none" stroke="#fff" stroke-opacity=".28" stroke-width="14"/>
			<text x="0" y="120" fill="#8a918c" font-family="Arial, sans-serif" font-size="7" font-weight="700">MAY 09 · 8 MIN</text>
			<text x="0" y="141" fill="#15231b" font-family="Georgia, serif" font-size="13" font-weight="700">Make room for</text>
			<text x="0" y="158" fill="#15231b" font-family="Georgia, serif" font-size="13" font-weight="700">new ideas</text>
		</g>
		<rect x="18" y="132" width="366" height="191" fill="none" stroke="#3858e9" stroke-width="2"/>
		<rect x="18" y="115" width="61" height="17" fill="#3858e9"/>
		<text x="25" y="127" fill="#fff" font-family="Arial, sans-serif" font-size="8" font-weight="700">Posts Grid</text>
	</g>

	<rect x="76" y="561" width="378" height="1" fill="#cfd2c9"/>
	<text x="76" y="591" fill="#657169" font-family="Arial, sans-serif" font-size="13" font-weight="700" letter-spacing="1">RESPONSIVE · FLEXIBLE QUERIES · AJAX PAGINATION</text>
</svg>
